<mxfile host="65bd71144e">
    <diagram id="dROoUH35XqA1peYKwM_S" name="Page-1">
        <mxGraphModel dx="580" dy="585" grid="1" gridSize="10" guides="1" tooltips="1" connect="1" arrows="1" fold="1" page="1" pageScale="1" pageWidth="850" pageHeight="1100" math="0" shadow="0">
            <root>
                <mxCell id="0"/>
                <mxCell id="1" parent="0"/>
                <mxCell id="7" style="edgeStyle=none;html=1;entryX=0.5;entryY=0;entryDx=0;entryDy=0;" edge="1" parent="1" source="2" target="3">
                    <mxGeometry relative="1" as="geometry"/>
                </mxCell>
                <mxCell id="10" style="edgeStyle=none;html=1;" edge="1" parent="1" source="2" target="9">
                    <mxGeometry relative="1" as="geometry"/>
                </mxCell>
                <mxCell id="13" style="edgeStyle=none;html=1;" edge="1" parent="1" source="2" target="12">
                    <mxGeometry relative="1" as="geometry"/>
                </mxCell>
                <mxCell id="2" value="App&lt;br&gt;&lt;br&gt;projectToEdit&lt;br&gt;cb to update projectToEdit&lt;br&gt;&lt;br&gt;updateProjects&lt;br&gt;&lt;br&gt;deleteProject" style="whiteSpace=wrap;html=1;" vertex="1" parent="1">
                    <mxGeometry x="290" y="70" width="190" height="120" as="geometry"/>
                </mxCell>
                <mxCell id="8" style="edgeStyle=none;html=1;entryX=0.5;entryY=0;entryDx=0;entryDy=0;" edge="1" parent="1" source="3" target="5">
                    <mxGeometry relative="1" as="geometry"/>
                </mxCell>
                <mxCell id="3" value="ProjectList" style="whiteSpace=wrap;html=1;" vertex="1" parent="1">
                    <mxGeometry x="250" y="270" width="120" height="60" as="geometry"/>
                </mxCell>
                <mxCell id="5" value="ProjectListItem&lt;br&gt;- button onClick to update projectToEdit(id)" style="whiteSpace=wrap;html=1;" vertex="1" parent="1">
                    <mxGeometry x="160" y="390" width="200" height="120" as="geometry"/>
                </mxCell>
                <mxCell id="9" value="ProjectEditForm" style="whiteSpace=wrap;html=1;" vertex="1" parent="1">
                    <mxGeometry x="425" y="280" width="120" height="60" as="geometry"/>
                </mxCell>
                <mxCell id="11" value="projectToEdit&lt;br&gt;updateProjects" style="text;html=1;align=center;verticalAlign=middle;resizable=0;points=[];autosize=1;strokeColor=none;fillColor=none;" vertex="1" parent="1">
                    <mxGeometry x="440" y="220" width="100" height="40" as="geometry"/>
                </mxCell>
                <mxCell id="12" value="ProjectForm" style="whiteSpace=wrap;html=1;" vertex="1" parent="1">
                    <mxGeometry x="560" y="280" width="120" height="60" as="geometry"/>
                </mxCell>
            </root>
        </mxGraphModel>
    </diagram>
</mxfile>